<svg preserveAspectRatio="none" width="100%" height="100%" overflow="visible" style="display: block;" viewBox="0 0 14 14" fill="none" xmlns="http://www.w3.org/2000/svg">
<path id="icon" d="M0 1.5C0 0.6875 0.65625 0 1.5 0H4.5C5.3125 0 6 0.6875 6 1.5V4.5C6 5.34375 5.3125 6 4.5 6H1.5C0.65625 6 0 5.34375 0 4.5V1.5ZM1 1.5V4.5C1 4.78125 1.21875 5 1.5 5H4.5C4.75 5 5 4.78125 5 4.5V1.5C5 1.25 4.75 1 4.5 1H1.5C1.21875 1 1 1.25 1 1.5ZM0 9.5C0 8.6875 0.65625 8 1.5 8H4.5C5.3125 8 6 8.6875 6 9.5V12.5C6 13.3438 5.3125 14 4.5 14H1.5C0.65625 14 0 13.3438 0 12.5V9.5ZM1 9.5V12.5C1 12.7812 1.21875 13 1.5 13H4.5C4.75 13 5 12.7812 5 12.5V9.5C5 9.25 4.75 9 4.5 9H1.5C1.21875 9 1 9.25 1 9.5ZM12.5 0C13.3125 0 14 0.6875 14 1.5V4.5C14 5.34375 13.3125 6 12.5 6H9.5C8.65625 6 8 5.34375 8 4.5V1.5C8 0.6875 8.65625 0 9.5 0H12.5ZM12.5 1H9.5C9.21875 1 9 1.25 9 1.5V4.5C9 4.78125 9.21875 5 9.5 5H12.5C12.75 5 13 4.78125 13 4.5V1.5C13 1.25 12.75 1 12.5 1ZM8 9.5C8 8.6875 8.65625 8 9.5 8H12.5C13.3125 8 14 8.6875 14 9.5V12.5C14 13.3438 13.3125 14 12.5 14H9.5C8.65625 14 8 13.3438 8 12.5V9.5ZM9 9.5V12.5C9 12.7812 9.21875 13 9.5 13H12.5C12.75 13 13 12.7812 13 12.5V9.5C13 9.25 12.75 9 12.5 9H9.5C9.21875 9 9 9.25 9 9.5Z" fill="var(--fill-0, #06232C)"/>
</svg>
