<svg preserveAspectRatio="none" width="100%" height="100%" overflow="visible" style="display: block;" viewBox="0 0 18 15.3673" fill="none" xmlns="http://www.w3.org/2000/svg">
<path id="icon" d="M8.96484 1.86729L9.38672 1.48057C10.5469 0.320415 12.1992 -0.206929 13.7812 0.0743214C16.207 0.46104 18 2.57042 18 5.03135V5.20713C18 6.6837 17.3672 8.08995 16.3125 9.07432L9.94922 15.0157C9.70312 15.2618 9.35156 15.3673 9 15.3673C8.61328 15.3673 8.26172 15.2618 8.01562 15.0157L1.65234 9.07432C0.597656 8.08995 0 6.6837 0 5.20713V5.03135C0 2.57042 1.75781 0.46104 4.18359 0.0743214C5.76562 -0.206929 7.41797 0.320415 8.57812 1.48057L8.96484 1.86729ZM8.96484 3.48448L7.76953 2.25401C6.89062 1.3751 5.625 0.953228 4.35938 1.16417C2.49609 1.48057 1.08984 3.09776 1.08984 5.03135V5.20713C1.08984 6.36729 1.58203 7.45713 2.42578 8.23057L8.78906 14.172C8.82422 14.2423 8.89453 14.2423 8.96484 14.2423C9.07031 14.2423 9.14062 14.2423 9.17578 14.172L15.5391 8.23057C16.3828 7.45713 16.875 6.36729 16.875 5.20713V5.03135C16.875 3.09776 15.4688 1.48057 13.6055 1.16417C12.3398 0.953228 11.0742 1.3751 10.1953 2.25401L8.96484 3.48448Z" fill="var(--fill-0, #536B75)"/>
</svg>
