<svg preserveAspectRatio="none" width="100%" height="100%" overflow="visible" style="display: block;" viewBox="0 0 20.6133 20.0183" fill="none" xmlns="http://www.w3.org/2000/svg">
<path id="icon" d="M16.6543 19.8438C16.3418 20.0391 15.9512 20.0781 15.6387 19.9219L10.2871 17.0312L4.93555 19.9219C4.62305 20.0781 4.27148 20.0391 3.95898 19.8438C3.68555 19.6484 3.5293 19.2578 3.56836 18.9062L4.62305 12.8516L0.287109 8.55469C0.0136719 8.28125 -0.0644531 7.92969 0.0527344 7.57812C0.169922 7.26562 0.443359 6.99219 0.794922 6.95312L6.77148 6.05469L9.4668 0.546875C9.62305 0.234375 9.93555 0 10.2871 0C10.6777 0 10.9902 0.234375 11.1465 0.546875L13.8418 6.05469L19.8184 6.95312C20.1699 6.99219 20.4434 7.26562 20.5605 7.57812C20.6777 7.92969 20.5996 8.28125 20.3262 8.55469L15.9902 12.8516L17.0059 18.9062C17.084 19.2578 16.9277 19.6484 16.6543 19.8438ZM1.57617 8.08594L5.48242 11.9531C5.79492 12.2266 5.91211 12.6562 5.83398 13.0469L4.93555 18.5156L9.66211 15.9766V2.96875L7.9043 6.60156C7.70898 6.99219 7.35742 7.22656 6.9668 7.30469L1.57617 8.08594ZM10.9512 15.9766L15.6777 18.5156L14.7793 13.0469C14.7012 12.6562 14.8184 12.2266 15.1309 11.9531L18.998 8.08594L13.6465 7.30469C13.2168 7.22656 12.8652 6.99219 12.709 6.60156L10.9512 2.96875V15.9766Z" fill="var(--fill-0, #031419)"/>
</svg>
