<svg preserveAspectRatio="none" width="100%" height="100%" overflow="visible" style="display: block;" viewBox="0 0 20 19.9707" fill="none" xmlns="http://www.w3.org/2000/svg">
<path id="icon" d="M19.375 5.20508C19.7266 5.43945 20 5.83008 20 6.25977C20 6.92383 19.4531 7.4707 18.75 7.4707H1.21094C0.507812 7.4707 0 6.92383 0 6.25977C0 5.83008 0.234375 5.43945 0.585938 5.20508L9.6875 0.0878906C9.88281 -0.0292969 10.0781 -0.0292969 10.2734 0.0878906L19.375 5.20508ZM18.6328 6.2207L10 1.33789L1.32812 6.2207H8.00781C7.85156 5.94727 7.8125 5.63477 7.8125 5.2832C7.8125 4.11133 8.78906 3.0957 10 3.0957C11.1719 3.0957 12.1875 4.11133 12.1875 5.2832C12.1875 5.63477 12.1094 5.94727 11.9531 6.2207H18.6328ZM10 6.2207C10.5078 6.2207 10.9375 5.83008 10.9375 5.2832C10.9375 4.77539 10.5078 4.3457 10 4.3457C9.45312 4.3457 9.0625 4.77539 9.0625 5.2832C9.0625 5.83008 9.45312 6.2207 10 6.2207ZM2.5 8.7207H3.75V13.7207H6.875V8.7207H8.125V13.7207H11.875V8.7207H13.125V13.7207H16.25V8.7207H17.5V13.7207C17.8125 13.7207 18.125 14.0332 18.125 14.3457C18.125 14.6973 17.8125 14.9707 17.5 14.9707H2.5C2.14844 14.9707 1.875 14.6973 1.875 14.3457C1.875 14.0332 2.14844 13.7207 2.5 13.7207V8.7207ZM18.4375 16.2207C18.75 16.2207 19.0625 16.5332 19.0625 16.8457C19.0625 17.1973 18.75 17.4707 18.4375 17.4707H1.5625C1.21094 17.4707 0.9375 17.1973 0.9375 16.8457C0.9375 16.5332 1.21094 16.2207 1.5625 16.2207H18.4375ZM19.375 18.7207C19.6875 18.7207 20 19.0332 20 19.3457C20 19.6973 19.6875 19.9707 19.375 19.9707H0.625C0.273438 19.9707 0 19.6973 0 19.3457C0 19.0332 0.273438 18.7207 0.625 18.7207H19.375Z" fill="var(--fill-0, #031419)"/>
</svg>
