<svg preserveAspectRatio="none" width="100%" height="100%" overflow="visible" style="display: block;" viewBox="0 0 15 15.9688" fill="none" xmlns="http://www.w3.org/2000/svg">
<path id="icon" d="M14.0625 2.59375L8.0625 0.09375C7.90625 0.03125 7.65625 0 7.5 0C7.3125 0 7.0625 0.03125 6.90625 0.09375L0.90625 2.59375C0.34375 2.84375 0 3.375 0 3.96875C0 12.0312 5.90625 15.9688 7.46875 15.9688C9.09375 15.9688 15 11.9688 15 3.96875C15 3.375 14.625 2.84375 14.0625 2.59375ZM10.5 6.21875C10.5 6.40625 10.4375 6.59375 10.3125 6.71875L7.3125 10.2188C7.09375 10.4688 6.8125 10.4688 6.75 10.4688C6.53125 10.4688 6.34375 10.375 6.21875 10.25L4.71875 8.75C4.5625 8.625 4.5 8.4375 4.5 8.21875C4.5 7.8125 4.8125 7.46875 5.25 7.46875C5.4375 7.46875 5.625 7.53125 5.75 7.6875L6.6875 8.59375L9.15625 5.71875C9.3125 5.53125 9.53125 5.46875 9.75 5.46875C10.3125 5.46875 10.5 6 10.5 6.21875Z" fill="var(--fill-0, #6F41D7)"/>
</svg>
