<svg preserveAspectRatio="none" width="100%" height="100%" overflow="visible" style="display: block;" viewBox="0 0 15.75 18" fill="none" xmlns="http://www.w3.org/2000/svg">
<path id="icon" d="M7.45312 0.175781L2.39062 5.23828C2.17969 5.44922 2.17969 5.83594 2.39062 6.04688C2.60156 6.25781 2.98828 6.25781 3.19922 6.04688L7.3125 1.93359V11.8125C7.3125 12.1289 7.55859 12.375 7.875 12.375C8.15625 12.375 8.4375 12.1289 8.4375 11.8125V1.93359L12.5156 6.04688C12.7266 6.25781 13.1133 6.25781 13.3242 6.04688C13.5352 5.83594 13.5352 5.44922 13.3242 5.23828L8.26172 0.175781C8.15625 0.0703125 8.01562 0 7.875 0C7.69922 0 7.55859 0.0703125 7.45312 0.175781ZM14.625 11.8125V15.1875C14.625 16.1367 13.8516 16.875 12.9375 16.875H2.8125C1.86328 16.875 1.125 16.1367 1.125 15.1875V11.8125C1.125 11.5312 0.84375 11.25 0.5625 11.25C0.246094 11.25 0 11.5312 0 11.8125V15.1875C0 16.7695 1.23047 18 2.8125 18H12.9375C14.4844 18 15.75 16.7695 15.75 15.1875V11.8125C15.75 11.5312 15.4688 11.25 15.1875 11.25C14.8711 11.25 14.625 11.5312 14.625 11.8125Z" fill="var(--fill-0, #031419)"/>
</svg>
