<svg preserveAspectRatio="none" width="100%" height="100%" overflow="visible" style="display: block;" viewBox="0 0 18 15.3673" fill="none" xmlns="http://www.w3.org/2000/svg">
<path id="icon" d="M0 5.20713V5.03135C0 2.57042 1.75781 0.46104 4.18359 0.0743214C5.76562 -0.206929 7.41797 0.320415 8.57812 1.48057L9 1.86729L9.38672 1.48057C10.5469 0.320415 12.1992 -0.206929 13.7812 0.0743214C16.207 0.46104 18 2.57042 18 5.03135V5.20713C18 6.6837 17.3672 8.08995 16.3125 9.07432L9.94922 15.0157C9.70312 15.2618 9.35156 15.3673 9 15.3673C8.61328 15.3673 8.26172 15.2618 8.01562 15.0157L1.65234 9.07432C0.597656 8.08995 0 6.6837 0 5.20713Z" fill="var(--fill-0, #EB0052)"/>
</svg>
