<svg preserveAspectRatio="none" width="100%" height="100%" overflow="visible" style="display: block;" viewBox="0 0 20 20" fill="none" xmlns="http://www.w3.org/2000/svg">
<path id="icon" d="M10 0C4.45312 0 0 4.49219 0 10C0 15.5469 4.45312 20 10 20C15.5078 20 20 15.5469 20 10C20 4.49219 15.5078 0 10 0ZM10 18.75C5.15625 18.75 1.25 14.8438 1.25 10C1.25 5.19531 5.15625 1.25 10 1.25C14.8047 1.25 18.75 5.19531 18.75 10C18.75 14.8438 14.8047 18.75 10 18.75ZM9.375 13.4375C8.82812 13.4375 8.4375 13.8672 8.4375 14.375C8.4375 14.9219 8.82812 15.3125 9.375 15.3125C9.88281 15.3125 10.3125 14.9219 10.3125 14.375C10.3125 13.8672 9.88281 13.4375 9.375 13.4375ZM11.1328 5H8.82812C7.38281 5 6.25 6.17188 6.25 7.61719V7.96875C6.25 8.32031 6.52344 8.59375 6.875 8.59375C7.1875 8.59375 7.5 8.32031 7.5 7.96875V7.61719C7.5 6.875 8.08594 6.25 8.82812 6.25H11.1328C11.875 6.25 12.5 6.875 12.5 7.61719C12.5 8.08594 12.2266 8.55469 11.7969 8.78906L9.45312 9.96094C9.02344 10.1953 8.75 10.6641 8.75 11.1719V11.875C8.75 12.2266 9.02344 12.5 9.375 12.5C9.6875 12.5 10 12.2266 10 11.875V11.1719C10 11.1328 10 11.0938 10.0391 11.0547L12.3828 9.88281C13.2031 9.41406 13.75 8.55469 13.75 7.61719C13.75 6.17188 12.5781 5 11.1328 5Z" fill="var(--fill-0, #031419)"/>
</svg>
